<svg aria-hidden="true" style="position: absolute; width: 0; height: 0; overflow: hidden;" version="1.1" xmlns="http://www.w3.org/2000/svg" xmlns:xlink="http://www.w3.org/1999/xlink">
<defs>
<symbol id="add" viewBox="0 0 32 32">
<path fill="#e5e5e5" style="fill: var(--color1, #e5e5e5)" d="M0 0h32v32h-32v-32z"></path>
<path fill="#fff" style="fill: var(--color2, #fff)" d="M-300.8-363.52h480v1039.36h-480v-1039.36z"></path>
<path fill="#000" style="fill: var(--color3, #000)" d="M-300.8-363.52h480v1039.36h-480v-1039.36z"></path>
<path fill="#fff" style="fill: var(--color2, #fff)" d="M-300.8 5.12c0-17.673 14.327-32 32-32h416c17.673 0 32 14.327 32 32v670.72h-480v-670.72z"></path>
<path fill="#f6f6f6" style="fill: var(--color4, #f6f6f6)" d="M-116.48-103.68h112.64c11.311 0 20.48 9.169 20.48 20.48v112.64c0 11.311-9.169 20.48-20.48 20.48h-112.64c-11.311 0-20.48-9.169-20.48-20.48v-112.64c0-11.311 9.169-20.48 20.48-20.48z"></path>
<path fill="#000" style="fill: var(--color3, #000); stroke: var(--color5, #ff6c00)" stroke="#ff6c00" stroke-linejoin="miter" stroke-linecap="butt" stroke-miterlimit="4" stroke-width="1.28" d="M31.36 16c0 8.483-6.877 15.36-15.36 15.36s-15.36-6.877-15.36-15.36c0-8.483 6.877-15.36 15.36-15.36s15.36 6.877 15.36 15.36z"></path>
<path fill="#ff6c00" style="fill: var(--color5, #ff6c00)" d="M16.64 7.68h-1.28v7.68h-7.68v1.28h7.68v7.68h1.28v-7.68h7.68v-1.28h-7.68v-7.68z"></path>
</symbol>
</defs>
</svg>
